<svg xmlns="http://www.w3.org/2000/svg" version="1.1" viewBox="158 147 193 197" style="max-height: 500px" width="193" height="197">
<path transform="translate(231.978759765625,170.37109375)" fill="#FEFEFE" d="M0 0 C8.87957101 0.70954304 17.7055823 0.74540243 26.60920525 0.70407104 C29.42938358 0.69109192 32.24951396 0.68474007 35.06971741 0.67993164 C41.03274709 0.66863372 46.99573574 0.64932051 52.95874023 0.62890625 C59.92639927 0.60528094 66.89403723 0.58496581 73.86172676 0.57296753 C76.64327579 0.56647697 79.42475707 0.55398366 82.20628357 0.54125977 C83.89321839 0.53763127 85.58015384 0.53427904 87.26708984 0.53125 C88.43023712 0.52350052 88.43023712 0.52350052 89.61688232 0.51559448 C91.41873087 0.51541351 93.22047163 0.56653123 95.02124023 0.62890625 C96.56525137 2.17291738 96.15346017 3.60903879 96.16168213 5.75987244 C96.16739227 6.65025711 96.17310242 7.54064178 96.1789856 8.45800781 C96.18066238 9.93466919 96.18066238 9.93466919 96.18237305 11.44116211 C96.18733795 12.47197403 96.19230286 13.50278595 96.19741821 14.56483459 C96.2120811 17.99114639 96.21884825 21.41741192 96.22436523 24.84375 C96.23011273 27.21407575 96.23587051 29.58440147 96.24163818 31.95472717 C96.25215956 36.93067645 96.25799496 41.90660951 96.26147461 46.88256836 C96.26696552 53.27327337 96.29100166 59.66376598 96.31944656 66.05440426 C96.33802549 70.95187516 96.34327598 75.84929439 96.34481049 80.74679756 C96.34784766 83.10362473 96.35591169 85.46045077 96.36899567 87.81724358 C96.38595913 91.10741445 96.3841998 94.3970596 96.37768555 97.68725586 C96.38690033 98.66967255 96.39611511 99.65208923 96.40560913 100.66427612 C96.3972554 102.00408287 96.3972554 102.00408287 96.38873291 103.37095642 C96.39019947 104.14949447 96.39166603 104.92803251 96.39317703 105.73016262 C96.27043789 106.35674802 96.14769875 106.98333342 96.02124023 107.62890625 C92.13630861 110.21886066 88.91556787 109.88116167 84.41577148 109.82421875 C83.57656662 109.82138885 82.73736176 109.81855896 81.87272644 109.81564331 C79.1929192 109.8044501 76.51344642 109.77934726 73.83374023 109.75390625 C72.01668777 109.74387533 70.19963007 109.73474968 68.38256836 109.7265625 C63.92866349 109.70451359 59.47500857 109.66998976 55.02124023 109.62890625 C54.98365601 111.43862915 54.98365601 111.43862915 54.9453125 113.28491211 C54.85141501 117.74466286 54.7511519 122.20425138 54.64892578 126.66381836 C54.60550982 128.5970481 54.56383981 130.53031784 54.52392578 132.46362305 C54.46638392 135.23628827 54.40264404 138.00875082 54.33764648 140.78125 C54.32093399 141.65103989 54.3042215 142.52082977 54.28700256 143.41697693 C54.13511194 149.51503454 54.13511194 149.51503454 53.02124023 150.62890625 C51.65515697 150.72425838 50.28418568 150.75079295 48.91477966 150.74916077 C48.02991882 150.75053543 47.14505798 150.7519101 46.23338318 150.75332642 C45.25515091 150.74973114 44.27691864 150.74613586 43.26904297 150.74243164 C42.24477203 150.74257767 41.2205011 150.74272369 40.16519165 150.74287415 C36.76171794 150.74217453 33.35829819 150.73437988 29.95483398 150.7265625 C27.60213755 150.72469849 25.24944073 150.72327451 22.89674377 150.72227478 C16.69067319 150.71844824 10.48462583 150.7086168 4.27856445 150.6975708 C-2.04874355 150.68735959 -8.37605528 150.68277779 -14.70336914 150.67773438 C-27.12850958 150.66699465 -39.55363275 150.64991661 -51.97875977 150.62890625 C-53.62713291 147.72986674 -54.22845609 145.66032529 -54.22599792 142.33372498 C-54.23228966 141.05723587 -54.23228966 141.05723587 -54.2387085 139.75495911 C-54.23308899 138.82962875 -54.22746948 137.9042984 -54.22167969 136.95092773 C-54.22357803 135.97005188 -54.22547638 134.98917603 -54.22743225 133.97857666 C-54.23113762 130.73563653 -54.22043953 127.49292024 -54.20922852 124.25 C-54.20803652 121.99845913 -54.20758359 119.74691776 -54.20783997 117.49537659 C-54.20627554 112.77691535 -54.19798847 108.05853003 -54.18457031 103.34008789 C-54.16757085 97.28481981 -54.16375629 91.22963511 -54.1645155 85.17434597 C-54.16424389 80.52561138 -54.15876439 75.87689509 -54.15151405 71.22816658 C-54.14832693 68.99498699 -54.14635988 66.76180532 -54.14562035 64.52862358 C-54.14345782 61.41154299 -54.13471565 58.29455171 -54.12402344 55.17749023 C-54.12447662 54.25013565 -54.12492981 53.32278107 -54.12539673 52.36732483 C-54.11899925 51.09506546 -54.11899925 51.09506546 -54.11247253 49.79710388 C-54.11079669 49.0602558 -54.10912085 48.32340773 -54.10739422 47.56423092 C-53.97875977 45.62890625 -53.97875977 45.62890625 -52.97875977 42.62890625 C-44.26646668 41.29084076 -35.69394927 41.73843346 -26.91625977 42.06640625 C-21.65688477 42.25203125 -16.39750977 42.43765625 -10.97875977 42.62890625 C-10.97875977 29.09890625 -10.97875977 15.56890625 -10.97875977 1.62890625 C-6.48536635 -0.61779046 -4.89120674 -0.44993756 0 0 Z M7.02124023 19.62890625 C7.02124023 27.21890625 7.02124023 34.80890625 7.02124023 42.62890625 C22.53124023 42.62890625 38.04124023 42.62890625 54.02124023 42.62890625 C54.02124023 58.46890625 54.02124023 74.30890625 54.02124023 90.62890625 C57.67466417 92.45561822 61.99963182 91.81361347 66.02124023 91.81640625 C66.94936523 91.82865234 67.87749023 91.84089844 68.83374023 91.85351562 C70.16405273 91.85641602 70.16405273 91.85641602 71.52124023 91.859375 C72.74327148 91.86553833 72.74327148 91.86553833 73.98999023 91.87182617 C76.24821857 91.81402011 76.24821857 91.81402011 78.02124023 89.62890625 C78.31524586 86.59191192 78.31524586 86.59191192 78.24829102 82.97607422 C78.24858307 82.29303223 78.24887512 81.60999023 78.24917603 80.90625 C78.24778063 78.64440284 78.2322099 76.38288349 78.21655273 74.12109375 C78.21282334 72.55453674 78.20997602 70.98797741 78.20797729 69.42141724 C78.200335 65.29495828 78.18068147 61.16863974 78.15856934 57.04223633 C78.1381237 52.83286438 78.12897833 48.62346977 78.11889648 44.4140625 C78.09743607 36.15227925 78.06329302 27.89061021 78.02124023 19.62890625 C74.73890618 18.5347949 72.32452113 18.50197015 68.86914062 18.49951172 C67.60094986 18.49635956 66.33275909 18.4932074 65.02613831 18.48995972 C63.64039068 18.4917498 62.25464337 18.49380083 60.86889648 18.49609375 C59.44787072 18.49542005 58.02684507 18.49444948 56.6058197 18.49319458 C53.62750145 18.49172023 50.6492132 18.49386341 47.67089844 18.49853516 C43.8565815 18.5042271 40.04233501 18.50095517 36.22802067 18.49496269 C33.29320243 18.49134557 30.35840083 18.49250106 27.42358208 18.49509048 C26.01738921 18.49575683 24.61119483 18.49494153 23.20500374 18.49261093 C21.23758092 18.49006616 19.27015279 18.49463371 17.30273438 18.49951172 C16.18371231 18.50030731 15.06469025 18.50110291 13.91175842 18.50192261 C10.80253799 18.54211095 10.80253799 18.54211095 7.02124023 19.62890625 Z M-34.97875977 60.62890625 C-35.00131238 69.86888496 -35.01967577 79.10884553 -35.03057194 88.34884548 C-35.03580037 92.6389054 -35.04289729 96.92894558 -35.05419922 101.21899414 C-35.06502952 105.35570025 -35.0710369 109.49238733 -35.07363701 113.62910652 C-35.075491 115.21082929 -35.07911112 116.79255096 -35.08448982 118.37426567 C-35.09170216 120.58213463 -35.09275063 122.78992398 -35.09228516 124.99780273 C-35.09450577 126.2568895 -35.09672638 127.51597626 -35.09901428 128.81321716 C-35.30083703 131.5322592 -35.30083703 131.5322592 -33.97875977 132.62890625 C-31.83132428 132.7231622 -29.68074951 132.74633273 -27.53125 132.74243164 C-26.8581076 132.74257767 -26.18496521 132.74272369 -25.49142456 132.74287415 C-23.25670192 132.74217503 -21.02206167 132.73438277 -18.78735352 132.7265625 C-17.24178615 132.72469831 -15.69621819 132.72327441 -14.15065002 132.72227478 C-10.075189 132.71844965 -5.9997634 132.70861942 -1.92431641 132.6975708 C2.23135906 132.68735657 6.38704022 132.68277714 10.54272461 132.67773438 C18.70224611 132.66699714 26.86173877 132.64992079 35.02124023 132.62890625 C36.24761594 130.17615484 36.13539338 128.57832815 36.11889648 125.83984375 C36.11567383 124.89882813 36.11245117 123.9578125 36.10913086 122.98828125 C36.10075195 122.0034375 36.09237305 121.01859375 36.08374023 120.00390625 C36.07922852 119.01132812 36.0747168 118.01875 36.07006836 116.99609375 C36.05826168 114.54030465 36.04179424 112.08463521 36.02124023 109.62890625 C24.04092868 108.82926686 12.1333353 108.5323454 0.125 108.66601562 C-1.41329468 108.67858398 -1.41329468 108.67858398 -2.98266602 108.69140625 C-3.89862549 108.70300781 -4.81458496 108.71460938 -5.75830078 108.7265625 C-7.97875977 108.62890625 -7.97875977 108.62890625 -9.97875977 107.62890625 C-11.00651799 101.84913454 -11.11365254 96.17311251 -11.07641602 90.31640625 C-11.07500107 89.46208008 -11.07358612 88.60775391 -11.0721283 87.72753906 C-11.06657939 85.02795752 -11.05403673 82.32846226 -11.04125977 79.62890625 C-11.03623815 77.78645954 -11.03167641 75.94401152 -11.02758789 74.1015625 C-11.01748225 69.61061797 -10.99789734 65.11985746 -10.97875977 60.62890625 C-18.89875977 60.62890625 -26.81875977 60.62890625 -34.97875977 60.62890625 Z M7.02124023 60.62890625 C7.02124023 70.52890625 7.02124023 80.42890625 7.02124023 90.62890625 C11.2550321 92.74580218 16.86963806 91.8138363 21.52124023 91.81640625 C23.27114258 91.83477539 23.27114258 91.83477539 25.05639648 91.85351562 C26.16885742 91.85544922 27.28131836 91.85738281 28.42749023 91.859375 C29.96373047 91.86553833 29.96373047 91.86553833 31.53100586 91.87182617 C34.19554777 91.87800841 34.19554777 91.87800841 36.02124023 89.62890625 C36.31661914 86.73102304 36.31661914 86.73102304 36.25170898 83.34375 C36.24880859 81.46526367 36.24880859 81.46526367 36.24584961 79.54882812 C36.23360352 78.23462891 36.22135742 76.92042969 36.20874023 75.56640625 C36.2080957 74.24833984 36.20745117 72.93027344 36.20678711 71.57226562 C36.75515147 65.71986701 36.75515147 65.71986701 35.02124023 60.62890625 C32.94861947 60.54123513 30.87303729 60.52194752 28.79858398 60.53125 C27.66412842 60.53374756 26.52967285 60.53624512 25.36083984 60.53881836 C23.90814697 60.54792236 22.4554541 60.55702637 20.95874023 60.56640625 C16.35936523 60.58703125 11.75999023 60.60765625 7.02124023 60.62890625 Z"/>
<path transform="translate(180,256)" fill="#F7F7F7" d="M0 0 C0.33 0 0.66 0 1 0 C1 10.23 1 20.46 1 31 C0.34 31.33 -0.32 31.66 -1 32 C-3.9751901 21.8129491 -1.46450105 10.30381093 0 0 Z"/>
<path transform="translate(268,297)" fill="#F3F3F3" d="M0 0 C0.66 0.33 1.32 0.66 2 1 C2.04254356 2.99954746 2.04080783 5.00041636 2 7 C1 8 1 8 -2.81640625 8.09765625 C-4.39846682 8.09098089 -5.98051159 8.07901875 -7.5625 8.0625 C-8.36880859 8.05798828 -9.17511719 8.05347656 -10.00585938 8.04882812 C-12.00393756 8.03700518 -14.00197783 8.01906914 -16 8 C-16 7.67 -16 7.34 -16 7 C-10.91913204 6.15318867 -6.15171623 5.90961901 -1 6 C-0.67 4.02 -0.34 2.04 0 0 Z"/>
</svg>